<svg width="661" height="478" viewBox="0 0 661 478" fill="none" xmlns="http://www.w3.org/2000/svg">
<g clip-path="url(#clip0_629_178)">
<path d="M660.04 262.93C660.04 263.394 659.664 263.77 659.2 263.77H0V262.09H659.2C659.664 262.09 660.04 262.466 660.04 262.93Z" fill="#E6E6E6"/>
<path d="M216.748 58.9315C230.507 58.9315 241.66 47.7781 241.66 34.0197C241.66 20.2613 230.507 9.10791 216.748 9.10791C202.99 9.10791 191.837 20.2613 191.837 34.0197C191.837 47.7781 202.99 58.9315 216.748 58.9315Z" fill="#FFB6B6"/>
<path d="M229.949 64.188L197.159 73.5567L192.474 84.0965L181.935 134.453V214.088C181.935 214.088 169.053 242.194 176.079 266.787C183.59 293.074 210.041 262.047 229.949 265.588C249.858 269.129 281.477 272.642 281.477 272.642L262.74 187.153L258.055 82.9254L229.949 64.188Z" fill="#E6E6E6"/>
<path d="M223.761 42.1777L218.697 39.6453C218.697 39.6453 217.43 28.2495 214.898 25.7171C212.366 23.1847 212.366 21.9184 212.366 21.9184L216.164 16.8536C216.164 16.8536 197.171 26.9833 193.372 20.6522C189.574 14.3212 194.639 11.7888 194.639 11.7888L188.308 6.72403C188.308 6.72403 195.905 11.7888 197.171 7.99023C198.437 4.19162 206.035 1.61435 206.035 1.61435C206.035 1.61435 222.625 5.36809 221.294 1.61435C219.963 -2.13939 225.028 1.65922 226.294 2.92542C227.56 4.19162 238.956 16.8536 240.222 15.5874C241.488 14.3212 247.819 18.1198 246.553 19.386C245.287 20.6523 245.287 21.9184 246.553 23.1847C247.819 24.4509 255.416 38.3791 249.085 43.4439C242.754 48.5087 233.891 54.8397 235.157 59.9045C236.423 64.9693 235.157 43.4439 223.761 42.1777Z" fill="#2F2E41"/>
<path d="M100.958 104.899C94.564 99.3871 92.2251 91.6202 95.7336 87.5516C99.242 83.483 107.268 84.6537 113.664 90.1684C116.249 92.3363 118.277 95.0916 119.579 98.204L146.375 121.9L134.987 134.238L109.78 109.568C106.508 108.738 103.483 107.137 100.958 104.899Z" fill="#FFB6B6"/>
<path d="M192.755 84.4993L210.407 82.8947L225.886 156.721C228.836 170.788 219.615 184.522 205.478 187.117L192.755 189.452L111.669 118.058L123.516 98.3093L183.313 135.819L192.755 84.4993Z" fill="#E4E4E4"/>
<path d="M153.349 412.812C153.349 412.812 139.349 438.812 140.349 437.812C141.349 436.812 158.349 442.812 158.349 442.812L168.349 416.812L153.349 412.812Z" fill="#FFB6B6"/>
<path d="M132.685 230.817C132.685 230.817 125.519 259.464 126.242 258.248C126.964 257.033 144.918 258.662 144.918 258.662L148.208 231L132.685 230.817Z" fill="#FFB6B6"/>
<path d="M257.349 226C225.71 230.445 197.134 226.569 173.849 208.312C173.849 208.312 156.849 265.312 187.849 271.312C218.849 277.312 253.349 267 257.349 257C261.349 247 257.349 226 257.349 226Z" fill="#2F2E41"/>
<path d="M198.349 244L163.849 325.312L147.849 419.312L168.849 424.312L206.412 337.812L257.349 255L198.349 244Z" fill="#2F2E41"/>
<path d="M193.849 220.812C193.849 220.812 185.849 158.812 170.849 154.812C163.536 152.862 156.699 153.051 151.611 153.757C146.484 154.469 142.396 158.386 141.5 163.485L127.868 241H147.144L153.349 220L169.849 248.813L193.849 220.812Z" fill="#2F2E41"/>
<path d="M144.849 250.812L125.79 248.812L122.849 259.812C122.849 259.812 91.8488 287.812 107.849 289.812C123.849 291.812 138.849 280.812 138.849 280.812L160.859 268.187C160.859 268.187 152.349 245.5 146.349 245.5C140.349 245.5 144.849 250.812 144.849 250.812Z" fill="#2F2E41"/>
<path d="M154.849 438.312L135.79 436.312L132.849 447.312C132.849 447.312 101.849 475.312 117.849 477.312C133.849 479.312 148.849 468.312 148.849 468.312L170.859 455.687C170.859 455.687 169.349 432 163.349 432C157.349 432 154.849 438.312 154.849 438.312Z" fill="#2F2E41"/>
<path d="M251.351 286.928C249.053 294.81 243.124 300.013 238.108 298.549C233.093 297.086 230.891 289.512 233.191 281.628C234.066 278.466 235.686 275.559 237.915 273.152L248.074 239.881L263.585 244.981L251.924 277.239C252.51 280.468 252.313 283.791 251.351 286.928Z" fill="#FFB6B6"/>
<path d="M262.088 83.0703L253.999 80.7891C246.373 95.9635 243.093 112.952 244.524 129.875L248.516 177.095L235.344 260.093L261.16 266.772L281.504 162.614L262.088 83.0703Z" fill="#E6E6E6"/>
<path d="M104.627 212.836C104.273 211.752 101.589 212.229 101.331 211.26C101.074 210.294 103.65 209.484 105.626 206.761C105.982 206.271 108.227 203.177 107.366 201.876C105.734 199.41 94.378 205.552 91.6522 202.105C91.0539 201.349 90.8078 200.05 89.0257 197.633C88.3167 196.672 87.8619 196.208 87.3184 196.221C86.5473 196.241 86.2714 197.206 85.0594 198.953C83.2418 201.574 82.5858 201.245 81.3885 203.392C80.4996 204.986 80.3943 206.004 79.7533 206.065C78.8462 206.149 78.4714 204.165 77.3631 204.088C76.2321 204.009 75.1003 205.97 74.5393 207.502C73.4864 210.378 74.1384 212.575 74.2829 214.765C74.44 217.145 74.0712 220.629 71.4852 225.101L47.0935 263.963C52.3319 256.041 67.2015 234.437 73.1925 226.513C74.9219 224.225 76.7805 221.928 79.6411 221.496C82.3952 221.08 85.7462 222.443 90.4235 222.363C90.9698 222.354 92.49 222.309 92.8598 221.503C93.1655 220.837 92.4064 220.258 92.6825 219.632C93.0529 218.792 94.7193 219.152 96.9903 218.594C98.5917 218.201 99.6796 217.551 100.615 216.992C100.897 216.824 105.099 214.278 104.627 212.836Z" fill="#F2F2F2"/>
<path d="M40.7413 221.909C40.1071 221.77 39.5668 223.225 39.0166 223.072C38.4684 222.919 38.8141 221.421 38.0481 219.666C37.91 219.35 37.0395 217.355 36.1524 217.403C34.471 217.492 34.2092 224.838 31.7309 225.181C31.1871 225.257 30.4786 225.003 28.7782 225.18C28.1018 225.251 27.7427 225.34 27.5927 225.611C27.3797 225.995 27.7736 226.409 28.2816 227.508C29.0434 229.156 28.6926 229.383 29.401 230.59C29.9269 231.486 30.3964 231.832 30.2409 232.164C30.0209 232.633 28.9387 232.245 28.5812 232.766C28.2163 233.299 28.8522 234.42 29.4423 235.138C30.5496 236.484 31.8163 236.798 32.9329 237.359C34.1464 237.969 35.7499 239.155 37.1986 241.714L49.2344 264.899C46.8575 260.042 40.5448 246.511 38.3841 241.284C37.7604 239.775 37.1693 238.2 37.7826 236.671C38.373 235.199 40.0086 233.948 41.3193 231.629C41.4723 231.359 41.8888 230.599 41.6 230.185C41.3613 229.843 40.858 230.049 40.6304 229.732C40.325 229.308 40.9827 228.594 41.3641 227.319C41.6331 226.419 41.628 225.698 41.6237 225.077C41.6223 224.89 41.5855 222.094 40.7413 221.909Z" fill="#F2F2F2"/>
<path d="M52.7489 227.566L53.1272 224.073L53.3593 223.853C54.4328 222.839 55.1044 221.764 55.3563 220.658C55.3964 220.482 55.4274 220.304 55.4592 220.123C55.5848 219.405 55.7408 218.512 56.4313 217.585C56.8177 217.068 57.8399 215.9 58.8941 216.308C59.1786 216.415 59.3707 216.599 59.5041 216.795C59.5376 216.761 59.5719 216.727 59.6086 216.69C60.064 216.248 60.3826 216.086 60.6894 215.929C60.9252 215.809 61.1687 215.686 61.5808 215.356C61.7615 215.212 61.9063 215.082 62.0283 214.972C62.3982 214.642 62.8714 214.255 63.5195 214.408C64.2065 214.596 64.4421 215.252 64.5984 215.685C64.8774 216.459 64.9634 216.992 65.0203 217.345C65.0408 217.473 65.0645 217.619 65.0825 217.666C65.2329 218.045 67.1206 218.143 67.8308 218.184C69.4274 218.27 70.809 218.345 71.1412 219.439C71.3796 220.221 70.8827 221.074 69.6219 222.041C69.2291 222.342 68.8365 222.55 68.4944 222.705C68.7048 222.904 68.8724 223.175 68.8827 223.543C68.9058 224.416 68.0112 225.085 66.2238 225.536C65.7796 225.65 65.1822 225.8 64.4004 225.762C64.0322 225.743 63.7097 225.687 63.4347 225.634C63.3937 225.791 63.3186 225.954 63.183 226.109C62.7852 226.564 62.1428 226.68 61.2707 226.423C60.308 226.155 59.5473 225.79 58.8761 225.469C58.2898 225.19 57.7843 224.951 57.3601 224.886C56.5711 224.775 55.8355 225.263 54.9551 225.911L52.7489 227.566Z" fill="#F2F2F2"/>
<path d="M59.0452 207.671L55.5705 208.191L55.2994 208.022C54.0457 207.241 52.8357 206.864 51.7016 206.901C51.5213 206.907 51.3414 206.922 51.1581 206.937C50.4315 206.998 49.5284 207.074 48.4563 206.641C47.8585 206.398 46.4698 205.706 46.5969 204.582C46.6279 204.28 46.7576 204.048 46.9129 203.869C46.8715 203.845 46.8302 203.821 46.7853 203.794C46.2418 203.466 46.0041 203.199 45.7753 202.942C45.5993 202.744 45.4179 202.54 44.9946 202.225C44.809 202.087 44.6465 201.98 44.5098 201.89C44.0965 201.616 43.6024 201.256 43.5862 200.59C43.5936 199.878 44.1677 199.484 44.5478 199.223C45.2256 198.756 45.7186 198.538 46.0456 198.394C46.1651 198.341 46.2995 198.281 46.3406 198.252C46.6691 198.01 46.2851 196.16 46.1446 195.462C45.8234 193.896 45.5455 192.54 46.5187 191.942C47.2147 191.513 48.1659 191.777 49.4217 192.751C49.8125 193.055 50.1131 193.382 50.3499 193.673C50.489 193.419 50.7082 193.189 51.062 193.085C51.8999 192.842 52.7742 193.537 53.6641 195.152C53.8864 195.553 54.1831 196.092 54.3447 196.858C54.4205 197.219 54.4477 197.545 54.4665 197.825C54.6285 197.825 54.8051 197.856 54.989 197.948C55.5304 198.217 55.8054 198.809 55.7783 199.718C55.763 200.717 55.603 201.546 55.463 202.276C55.3415 202.914 55.2387 203.464 55.2832 203.891C55.3766 204.682 56.0344 205.27 56.8848 205.957L59.0452 207.671Z" fill="#F2F2F2"/>
<path d="M59.5135 197.237L59.8918 193.744L60.1238 193.524C61.1974 192.51 61.869 191.435 62.1209 190.329C62.161 190.153 62.192 189.975 62.2238 189.794C62.3494 189.076 62.5054 188.183 63.1958 187.255C63.5823 186.739 64.6045 185.571 65.6587 185.979C65.9432 186.086 66.1353 186.27 66.2687 186.466C66.3022 186.432 66.3365 186.398 66.3732 186.361C66.8286 185.919 67.1472 185.757 67.454 185.6C67.6898 185.48 67.9333 185.357 68.3454 185.027C68.5261 184.883 68.6709 184.753 68.7929 184.643C69.1628 184.313 69.6359 183.926 70.2841 184.079C70.9711 184.267 71.2067 184.923 71.3629 185.356C71.642 186.13 71.728 186.663 71.7849 187.015C71.8053 187.144 71.8291 187.29 71.8471 187.337C71.9974 187.716 73.8852 187.814 74.5954 187.855C76.192 187.941 77.5735 188.016 77.9058 189.11C78.1442 189.892 77.6473 190.745 76.3865 191.712C75.9937 192.013 75.601 192.221 75.259 192.376C75.4694 192.575 75.637 192.846 75.6473 193.214C75.6704 194.087 74.7757 194.756 72.9884 195.207C72.5442 195.321 71.9468 195.471 71.165 195.433C70.7968 195.414 70.4743 195.358 70.1993 195.305C70.1583 195.462 70.0832 195.625 69.9476 195.78C69.5498 196.235 68.9074 196.351 68.0353 196.094C67.0726 195.826 66.3119 195.461 65.6407 195.14C65.0544 194.861 64.5489 194.622 64.1247 194.557C63.3357 194.446 62.6001 194.934 61.7196 195.582L59.5135 197.237Z" fill="#F2F2F2"/>
<path d="M48.2467 264.162L47.6324 263.555L46.7785 263.465C46.7826 263.384 46.777 263.197 46.7708 262.903C46.7379 261.296 46.6359 256.406 47.3169 248.892C47.7924 243.647 48.5869 238.323 49.6785 233.065C50.7719 227.799 51.9067 223.88 52.8181 220.731C53.506 218.355 54.2003 216.102 54.878 213.908C56.6866 208.045 58.3944 202.506 59.4519 196.188C59.6888 194.778 60.1803 191.843 59.174 188.378C58.5901 186.368 57.5904 184.477 56.2017 182.757L57.5458 181.672C59.0782 183.572 60.1837 185.667 60.8322 187.898C61.9479 191.739 61.4124 194.938 61.1551 196.475C60.0787 202.904 58.3539 208.496 56.5274 214.416C55.8532 216.602 55.1611 218.845 54.4763 221.211C53.5731 224.331 52.4485 228.216 51.3693 233.414C50.2901 238.609 49.5057 243.869 49.0355 249.048C48.3636 256.467 48.4645 261.284 48.4975 262.867C48.5146 263.712 48.5183 263.889 48.2467 264.162Z" fill="#F2F2F2"/>
<path d="M52.5144 184.745C52.4453 184.73 52.3757 184.713 52.3061 184.692C50.8885 184.295 49.7514 183.139 48.9254 181.259C48.5388 180.375 48.4475 179.444 48.2655 177.588C48.237 177.302 48.1108 175.854 48.2659 173.935C48.3668 172.681 48.5016 172.177 48.8429 171.782C49.2218 171.341 49.7324 171.089 50.2719 170.962C50.2865 170.796 50.3408 170.634 50.4486 170.48C50.8924 169.841 51.6354 170.104 52.0385 170.24C52.2416 170.313 52.4946 170.406 52.7793 170.454C53.2267 170.531 53.4939 170.453 53.8983 170.336C54.2852 170.223 54.7663 170.083 55.4313 170.095C56.7435 170.113 57.7148 170.703 58.0351 170.897C59.722 171.911 60.3045 173.528 60.9785 175.4C61.1124 175.776 61.5569 177.132 61.6604 178.879C61.7351 180.14 61.57 180.656 61.3806 181.024C60.9938 181.783 60.4015 182.134 58.9316 182.874C57.3959 183.649 56.6253 184.037 55.9936 184.236C54.5235 184.698 53.6004 184.988 52.5144 184.745Z" fill="#F2F2F2"/>
<path d="M446.733 38.5434C446.733 38.5434 456.27 44.1363 453.142 49.6673C450.014 55.1982 445.654 62.7321 448.612 65.1048C451.57 67.4775 456.454 77.9388 456.454 77.9388C456.454 77.9388 477.299 75.0273 475.342 91.2199C473.385 107.412 463.593 109.62 471.986 116.743C480.38 123.867 463.263 132.387 463.263 132.387C463.263 132.387 451.446 128.704 448.75 117.38C446.054 106.056 451.153 126.039 449.443 127.472C447.733 128.904 441.092 138.349 436.393 125.792C431.695 113.235 436.348 108.367 430.139 100.956C423.93 93.5453 419.709 81.5587 419.894 79.4634C420.079 77.3681 412.792 58.2481 424.008 50.7914C435.224 43.3347 446.733 38.5434 446.733 38.5434Z" fill="#2F2E41"/>
<path d="M540.67 214.233C546.207 218.816 553.059 219.673 555.975 216.149C558.891 212.625 556.765 206.054 551.226 201.471C549.038 199.609 546.436 198.299 543.639 197.65L519.933 178.53L511.198 189.845L535.495 207.493C536.657 210.121 538.431 212.432 540.67 214.233Z" fill="#FFB6B6"/>
<path d="M469.622 109.958C469.622 109.958 451.019 97.5165 444.927 103.617C438.835 109.718 440.29 124.955 440.29 124.955L489.075 181.811L527.76 206.401L538.133 190.158L505.61 161.137L469.622 109.958Z" fill="#3F3D56"/>
<path d="M442.353 83.0079L449.103 107H412.055L424.255 77.438L442.353 83.0079Z" fill="#FFB6B6"/>
<path opacity="0.1" d="M442.353 83.0079L449.103 107H412.055L424.255 77.438L442.353 83.0079Z" fill="black"/>
<path d="M361.56 260.149C361.082 267.321 364.394 273.38 368.958 273.684C373.522 273.988 377.609 268.421 378.086 261.247C378.316 258.384 377.857 255.507 376.748 252.858L378.39 222.447L364.103 221.98L364 252.009C362.548 254.489 361.712 257.28 361.56 260.149Z" fill="#FFB6B6"/>
<path d="M404.581 141.531C404.581 141.531 403.791 119.165 395.28 117.792C386.768 116.419 375.26 126.512 375.26 126.512L357.68 199.337L360.362 245.097L379.604 244.01L384.12 200.656L404.581 141.531Z" fill="#3F3D56"/>
<path d="M487.103 408.812C487.103 408.812 501.103 434.812 500.103 433.812C499.103 432.812 482.103 438.812 482.103 438.812L472.103 412.812L487.103 408.812Z" fill="#FFB6B6"/>
<path d="M507.766 226.817C507.766 226.817 514.933 255.464 514.21 254.248C513.487 253.033 495.533 254.662 495.533 254.662L492.243 227L507.766 226.817Z" fill="#FFB6B6"/>
<path d="M452.103 99H417.15L379.103 125L368.103 216L374.103 234L385.103 255C385.103 255 374.103 209 401.103 227C428.103 245 430.103 248 430.103 248L466.103 230L479.603 155.5L469.603 114.5L452.103 99Z" fill="#3F3D56"/>
<path d="M383.103 222C414.741 226.445 443.318 222.569 466.603 204.312C466.603 204.312 483.603 261.312 452.603 267.312C421.603 273.312 387.103 263 383.103 253C379.103 243 383.103 222 383.103 222Z" fill="#2F2E41"/>
<path d="M442.103 240L476.603 321.312L492.603 415.312L471.603 420.312L434.04 333.812L383.103 251L442.103 240Z" fill="#2F2E41"/>
<path d="M446.603 216.812C446.603 216.812 454.603 154.812 469.603 150.812C476.915 148.862 483.753 149.051 488.84 149.757C493.968 150.469 498.055 154.386 498.952 159.485L512.583 237H493.307L487.103 216L470.603 244.813L446.603 216.812Z" fill="#2F2E41"/>
<path d="M495.603 246.812L514.662 244.812L517.603 255.812C517.603 255.812 548.603 283.812 532.603 285.812C516.603 287.812 501.603 276.812 501.603 276.812L479.593 264.187C479.593 264.187 488.103 241.5 494.103 241.5C500.103 241.5 495.603 246.812 495.603 246.812Z" fill="#2F2E41"/>
<path d="M485.603 434.312L504.662 432.312L507.603 443.312C507.603 443.312 538.603 471.312 522.603 473.312C506.603 475.312 491.603 464.312 491.603 464.312L469.593 451.687C469.593 451.687 471.103 428 477.103 428C483.103 428 485.603 434.312 485.603 434.312Z" fill="#2F2E41"/>
<path d="M433.551 88.2215C445.873 88.2215 455.862 78.2327 455.862 65.9109C455.862 53.5891 445.873 43.6003 433.551 43.6003C421.229 43.6003 411.24 53.5891 411.24 65.9109C411.24 78.2327 421.229 88.2215 433.551 88.2215Z" fill="#FFB6B6"/>
<path d="M442.103 40.9974C442.103 40.9974 445.822 51.409 439.872 53.6401C433.923 55.8711 425.742 58.8459 426.486 62.5643C427.23 66.2827 424.255 77.4381 424.255 77.4381C424.255 77.4381 442.103 88.5934 430.204 99.7487C418.305 110.904 409.381 106.307 411.24 117.158C413.099 128.009 394.507 123.547 394.507 123.547C394.507 123.547 387.814 113.135 393.02 102.723C398.226 92.3118 389.301 110.904 387.07 110.904C384.839 110.904 373.684 113.879 378.146 101.236C382.608 88.5934 389.302 87.8497 389.302 78.1817C389.302 68.5138 393.764 56.6148 395.251 55.1274C396.738 53.6401 403.432 34.3042 416.818 35.7916C430.204 37.2789 442.103 40.9974 442.103 40.9974Z" fill="#2F2E41"/>
<path d="M247.103 408.812C247.103 408.812 233.103 434.812 234.103 433.812C235.103 432.812 252.103 438.812 252.103 438.812L262.103 412.812L247.103 408.812Z" fill="#A0616A"/>
<path d="M351.103 222C319.464 226.445 290.887 222.569 267.603 204.312C267.603 204.312 250.603 261.312 281.603 267.312C312.603 273.312 347.103 263 351.103 253C355.103 243 351.103 222 351.103 222Z" fill="#2F2E41"/>
<path d="M292.103 240L257.603 321.312L241.603 415.312L262.603 420.312L300.166 333.812L351.103 251L292.103 240Z" fill="#2F2E41"/>
<path d="M248.603 434.312L229.544 432.312L226.603 443.312C226.603 443.312 195.603 471.312 211.603 473.312C227.603 475.312 242.603 464.312 242.603 464.312L264.613 451.687C264.613 451.687 263.103 428 257.103 428C251.103 428 248.603 434.312 248.603 434.312Z" fill="#2F2E41"/>
<path d="M278.714 395.133C278.714 395.133 273.418 424.184 274.061 422.924C274.704 421.665 292.726 422.127 292.726 422.127L294.217 394.311L278.714 395.133Z" fill="#A0616A"/>
<path d="M269.44 220.672L261.708 308.662L275.488 403.013L297.006 401.29L306.051 307.421L328.956 212.934L269.44 220.672Z" fill="#2F2E41"/>
<path d="M288.008 418.927L269.262 422.904L269.858 434.275C269.858 434.275 249.008 470.473 264.845 467.439C280.681 464.405 291.556 449.314 291.556 449.314L308.597 430.514C308.597 430.514 299.853 408.449 294.146 410.3C288.439 412.151 288.008 418.927 288.008 418.927Z" fill="#2F2E41"/>
<path d="M287.472 38.5434C287.472 38.5434 277.936 44.1363 281.063 49.6673C284.191 55.1982 288.551 62.7321 285.593 65.1048C282.635 67.4775 277.751 77.9388 277.751 77.9388C277.751 77.9388 256.906 75.0273 258.863 91.2199C260.82 107.412 270.613 109.62 262.219 116.743C253.826 123.867 270.943 132.387 270.943 132.387C270.943 132.387 282.76 128.704 285.456 117.38C288.152 106.056 283.052 126.039 284.762 127.472C286.473 128.904 293.113 138.349 297.812 125.792C302.511 113.235 297.858 108.367 304.067 100.956C310.275 93.5453 314.497 81.5587 314.312 79.4634C314.127 77.3681 321.414 58.2481 310.198 50.7914C298.981 43.3347 287.472 38.5434 287.472 38.5434Z" fill="#2F2E41"/>
<path d="M291.853 83.0079L285.103 107H322.15L309.951 77.438L291.853 83.0079Z" fill="#A0616A"/>
<path opacity="0.1" d="M291.853 83.0079L285.103 107H322.15L309.951 77.438L291.853 83.0079Z" fill="black"/>
<path d="M372.645 260.149C373.124 267.321 369.811 273.38 365.247 273.684C360.683 273.988 356.597 268.421 356.119 261.247C355.889 258.384 356.348 255.507 357.458 252.858L355.815 222.447L370.103 221.98L370.205 252.009C371.657 254.489 372.494 257.28 372.645 260.149Z" fill="#A0616A"/>
<path d="M329.624 141.531C329.624 141.531 330.414 119.165 338.925 117.792C347.437 116.419 358.945 126.512 358.945 126.512L376.526 199.337L373.843 245.097L354.602 244.01L350.086 200.656L329.624 141.531Z" fill="#6C63FF"/>
<path d="M282.103 99H317.055L355.103 125L366.103 216L360.103 234L349.103 255C349.103 255 360.103 209 333.103 227C332.833 227.18 332.565 227.359 332.3 227.536C314.92 239.144 291.986 237.952 275.898 224.611L263.103 214L270.103 179L264.603 114.5L282.103 99Z" fill="#6C63FF"/>
<path d="M194.642 212.93C189.036 217.427 182.171 218.181 179.309 214.613C176.447 211.044 178.672 204.507 184.281 200.008C186.496 198.181 189.118 196.91 191.925 196.303L215.919 177.545L224.481 188.992L199.919 206.269C198.717 208.879 196.907 211.163 194.642 212.93Z" fill="#A0616A"/>
<path d="M267.266 109.746C267.266 109.746 286.056 97.5891 292.055 103.781C298.053 109.974 296.367 125.188 296.367 125.188L246.723 181.296L207.669 205.294L197.544 188.896L230.504 160.373L267.266 109.746Z" fill="#6C63FF"/>
<path d="M300.655 88.2215C312.976 88.2215 322.965 78.2327 322.965 65.9109C322.965 53.5891 312.976 43.6003 300.655 43.6003C288.333 43.6003 278.344 53.5891 278.344 65.9109C278.344 78.2327 288.333 88.2215 300.655 88.2215Z" fill="#A0616A"/>
<path d="M289.548 50.9563C289.548 50.9563 286.261 40 291.739 40C297.217 40 319.13 41.0956 321.321 43.2869C323.512 45.4781 349.441 67.47 334.103 85C318.764 102.53 334.103 111 334.103 111C334.103 111 345.425 137.511 334.468 139.702C323.512 141.893 278.571 129.364 289.548 109.024C301.46 86.9521 307.003 52.1145 289.548 50.9563Z" fill="#2F2E41"/>
<path d="M654.628 213.836C654.273 212.752 651.589 213.229 651.331 212.26C651.074 211.294 653.65 210.484 655.626 207.761C655.982 207.271 658.227 204.177 657.366 202.876C655.734 200.41 644.378 206.552 641.652 203.105C641.054 202.349 640.808 201.05 639.026 198.633C638.317 197.672 637.862 197.208 637.318 197.221C636.547 197.241 636.271 198.206 635.059 199.953C633.242 202.574 632.586 202.245 631.388 204.392C630.5 205.986 630.394 207.004 629.753 207.065C628.846 207.149 628.471 205.165 627.363 205.088C626.232 205.009 625.1 206.97 624.539 208.502C623.486 211.378 624.138 213.575 624.283 215.765C624.44 218.145 624.071 221.629 621.485 226.101L597.094 264.963C602.332 257.041 617.202 235.437 623.192 227.513C624.922 225.225 626.78 222.928 629.641 222.496C632.395 222.08 635.746 223.443 640.424 223.363C640.97 223.354 642.49 223.309 642.86 222.503C643.165 221.837 642.406 221.258 642.683 220.632C643.053 219.792 644.719 220.152 646.99 219.594C648.592 219.201 649.68 218.551 650.615 217.992C650.897 217.824 655.099 215.278 654.628 213.836Z" fill="#F2F2F2"/>
<path d="M590.741 222.909C590.107 222.77 589.567 224.225 589.017 224.072C588.468 223.919 588.814 222.421 588.048 220.666C587.91 220.35 587.039 218.355 586.152 218.403C584.471 218.492 584.209 225.838 581.731 226.181C581.187 226.257 580.479 226.003 578.778 226.18C578.102 226.251 577.743 226.34 577.593 226.611C577.38 226.995 577.774 227.409 578.282 228.508C579.043 230.156 578.693 230.383 579.401 231.59C579.927 232.486 580.396 232.832 580.241 233.164C580.021 233.633 578.939 233.245 578.581 233.766C578.216 234.299 578.852 235.42 579.442 236.138C580.55 237.484 581.816 237.798 582.933 238.359C584.146 238.969 585.75 240.155 587.199 242.714L599.234 265.899C596.858 261.042 590.545 247.511 588.384 242.284C587.76 240.775 587.169 239.2 587.783 237.671C588.373 236.199 590.009 234.948 591.319 232.629C591.472 232.359 591.889 231.599 591.6 231.185C591.361 230.843 590.858 231.049 590.63 230.732C590.325 230.308 590.983 229.594 591.364 228.319C591.633 227.419 591.628 226.698 591.624 226.077C591.622 225.89 591.585 223.094 590.741 222.909Z" fill="#F2F2F2"/>
<path d="M602.749 228.566L603.127 225.073L603.359 224.853C604.433 223.839 605.104 222.764 605.356 221.658C605.396 221.482 605.427 221.304 605.459 221.123C605.585 220.405 605.741 219.512 606.431 218.585C606.818 218.068 607.84 216.9 608.894 217.308C609.179 217.415 609.371 217.599 609.504 217.795C609.538 217.761 609.572 217.727 609.609 217.69C610.064 217.248 610.383 217.086 610.689 216.929C610.925 216.809 611.169 216.686 611.581 216.356C611.762 216.212 611.906 216.082 612.028 215.972C612.398 215.642 612.871 215.255 613.519 215.408C614.207 215.596 614.442 216.252 614.598 216.685C614.877 217.459 614.963 217.992 615.02 218.345C615.041 218.473 615.064 218.619 615.082 218.666C615.233 219.045 617.121 219.143 617.831 219.184C619.427 219.27 620.809 219.345 621.141 220.439C621.38 221.221 620.883 222.074 619.622 223.041C619.229 223.342 618.836 223.55 618.494 223.705C618.705 223.904 618.872 224.175 618.883 224.543C618.906 225.416 618.011 226.085 616.224 226.536C615.78 226.65 615.182 226.8 614.4 226.762C614.032 226.743 613.71 226.687 613.435 226.634C613.394 226.791 613.319 226.954 613.183 227.109C612.785 227.564 612.143 227.68 611.271 227.423C610.308 227.155 609.547 226.79 608.876 226.469C608.29 226.19 607.784 225.951 607.36 225.886C606.571 225.775 605.835 226.263 604.955 226.911L602.749 228.566Z" fill="#F2F2F2"/>
<path d="M609.045 208.671L605.571 209.191L605.299 209.022C604.046 208.241 602.836 207.864 601.702 207.901C601.521 207.907 601.341 207.922 601.158 207.937C600.432 207.998 599.528 208.074 598.456 207.641C597.859 207.398 596.47 206.706 596.597 205.582C596.628 205.28 596.758 205.048 596.913 204.869C596.872 204.845 596.83 204.821 596.785 204.794C596.242 204.466 596.004 204.199 595.775 203.942C595.599 203.744 595.418 203.54 594.995 203.225C594.809 203.087 594.646 202.98 594.51 202.89C594.096 202.616 593.602 202.256 593.586 201.59C593.594 200.878 594.168 200.484 594.548 200.223C595.226 199.756 595.719 199.538 596.046 199.394C596.165 199.341 596.3 199.281 596.341 199.252C596.669 199.01 596.285 197.16 596.145 196.462C595.823 194.896 595.545 193.54 596.519 192.942C597.215 192.513 598.166 192.777 599.422 193.751C599.812 194.055 600.113 194.382 600.35 194.673C600.489 194.419 600.708 194.189 601.062 194.085C601.9 193.842 602.774 194.537 603.664 196.152C603.886 196.553 604.183 197.092 604.345 197.858C604.42 198.219 604.448 198.545 604.466 198.825C604.628 198.825 604.805 198.856 604.989 198.948C605.53 199.217 605.805 199.809 605.778 200.718C605.763 201.717 605.603 202.546 605.463 203.276C605.342 203.914 605.239 204.464 605.283 204.891C605.377 205.682 606.034 206.27 606.885 206.957L609.045 208.671Z" fill="#F2F2F2"/>
<path d="M609.513 198.237L609.892 194.744L610.124 194.524C611.197 193.51 611.869 192.435 612.121 191.329C612.161 191.153 612.192 190.975 612.224 190.794C612.349 190.076 612.505 189.183 613.196 188.255C613.582 187.739 614.604 186.571 615.659 186.979C615.943 187.086 616.135 187.27 616.269 187.466C616.302 187.432 616.336 187.398 616.373 187.361C616.829 186.919 617.147 186.757 617.454 186.6C617.69 186.48 617.933 186.357 618.345 186.027C618.526 185.883 618.671 185.753 618.793 185.643C619.163 185.313 619.636 184.926 620.284 185.079C620.971 185.267 621.207 185.923 621.363 186.356C621.642 187.13 621.728 187.663 621.785 188.015C621.805 188.144 621.829 188.29 621.847 188.337C621.997 188.716 623.885 188.814 624.595 188.855C626.192 188.941 627.574 189.016 627.906 190.11C628.144 190.892 627.647 191.745 626.386 192.712C625.994 193.013 625.601 193.221 625.259 193.376C625.469 193.575 625.637 193.846 625.647 194.214C625.67 195.087 624.776 195.756 622.988 196.207C622.544 196.321 621.947 196.471 621.165 196.433C620.797 196.414 620.474 196.358 620.199 196.305C620.158 196.462 620.083 196.625 619.948 196.78C619.55 197.235 618.907 197.351 618.035 197.094C617.073 196.826 616.312 196.461 615.641 196.14C615.054 195.861 614.549 195.622 614.125 195.557C613.336 195.446 612.6 195.934 611.72 196.582L609.513 198.237Z" fill="#F2F2F2"/>
<path d="M598.247 265.162L597.632 264.555L596.778 264.465C596.783 264.384 596.777 264.197 596.771 263.903C596.738 262.296 596.636 257.406 597.317 249.892C597.792 244.647 598.587 239.323 599.679 234.065C600.772 228.799 601.907 224.88 602.818 221.731C603.506 219.355 604.2 217.102 604.878 214.908C606.687 209.045 608.394 203.506 609.452 197.188C609.689 195.778 610.18 192.843 609.174 189.378C608.59 187.368 607.59 185.477 606.202 183.757L607.546 182.672C609.078 184.572 610.184 186.667 610.832 188.898C611.948 192.739 611.412 195.938 611.155 197.475C610.079 203.904 608.354 209.496 606.527 215.416C605.853 217.602 605.161 219.845 604.476 222.211C603.573 225.331 602.448 229.216 601.369 234.414C600.29 239.609 599.506 244.869 599.035 250.048C598.363 257.467 598.464 262.284 598.498 263.867C598.515 264.712 598.518 264.889 598.247 265.162Z" fill="#F2F2F2"/>
<path d="M602.514 185.745C602.445 185.73 602.376 185.713 602.306 185.692C600.888 185.295 599.751 184.139 598.925 182.259C598.539 181.375 598.447 180.444 598.265 178.588C598.237 178.302 598.111 176.854 598.266 174.935C598.367 173.681 598.502 173.177 598.843 172.782C599.222 172.341 599.732 172.089 600.272 171.962C600.286 171.796 600.341 171.634 600.449 171.48C600.892 170.841 601.635 171.104 602.038 171.24C602.242 171.313 602.495 171.406 602.779 171.454C603.227 171.531 603.494 171.453 603.898 171.336C604.285 171.223 604.766 171.083 605.431 171.095C606.743 171.113 607.715 171.703 608.035 171.897C609.722 172.911 610.304 174.528 610.978 176.4C611.112 176.776 611.557 178.132 611.66 179.879C611.735 181.14 611.57 181.656 611.381 182.024C610.994 182.783 610.402 183.134 608.932 183.874C607.396 184.649 606.625 185.037 605.994 185.236C604.523 185.698 603.6 185.988 602.514 185.745Z" fill="#F2F2F2"/>
</g>
<defs>
<clipPath id="clip0_629_178">
<rect width="660.04" height="477.556" fill="white"/>
</clipPath>
</defs>
</svg>
